<?xml version="1.0" encoding="UTF-8"?>
<svg width="35px" height="21px" viewBox="0 0 35 21" version="1.1" xmlns="http://www.w3.org/2000/svg" xmlns:xlink="http://www.w3.org/1999/xlink">
    <title>icon_USA</title>
    <g id="High-Fidelity-Website-Working" stroke="none" stroke-width="1" fill="none" fill-rule="evenodd">
        <g id="home" transform="translate(-1121, -9725)" fill="#FFFFFF" fill-rule="nonzero">
            <g id="Group-11-Copy" transform="translate(0, 9269)">
                <g id="Group-10" transform="translate(0, 425)">
                    <g id="Group-8" transform="translate(764, 30)">
                        <g id="icon_USA" transform="translate(357, 1)">
                            <path d="M0,0 L0,11.3017739 L15.8469006,11.3017739 L15.8469006,0 L0,0 Z M13.2720268,1.60888018 L13.4274334,2.09032539 L13.9370756,2.09032539 L13.5249434,2.38589618 L13.68035,2.86734139 L13.2720268,2.56948525 L12.8637036,2.86734139 L13.0191102,2.38589618 L12.6069781,2.09032539 L13.1166202,2.09032539 L13.2720268,1.60888018 Z M13.68035,7.41745565 L13.2720268,7.11959952 L12.8637036,7.41745565 L13.0191102,6.93601045 L12.6069781,6.64043966 L13.1166202,6.64043966 L13.2720268,6.15899445 L13.4274334,6.64043966 L13.9370756,6.64043966 L13.5249434,6.93601045 L13.68035,7.41745565 Z M12.3502525,8.55479378 L11.9419293,8.25693764 L11.5336061,8.55479378 L11.6890127,8.07334857 L11.2768806,7.77777778 L11.7865227,7.77777778 L11.9419293,7.29633257 L12.0973359,7.77777778 L12.6069781,7.77777778 L12.1948459,8.07334857 L12.3502525,8.55479378 Z M11.020155,7.41745565 L10.6118318,7.11959952 L10.2035086,7.41745565 L10.3589152,6.93601045 L9.94678304,6.64043966 L10.4564252,6.64043966 L10.6118318,6.15899445 L10.7672384,6.64043966 L11.2768806,6.64043966 L10.8647484,6.93601045 L11.020155,7.41745565 Z M9.69005746,8.55479378 L9.28173429,8.25693764 L8.87341111,8.55479378 L9.02881769,8.07334857 L8.61668553,7.77777778 L9.1263277,7.77777778 L9.28173429,7.29633257 L9.43714087,7.77777778 L9.94678304,7.77777778 L9.53465088,8.07334857 L9.69005746,8.55479378 Z M8.35995995,7.41745565 L7.95163678,7.11959952 L7.5433136,7.41745565 L7.69872018,6.93601045 L7.28658802,6.64043966 L7.79623019,6.64043966 L7.95163678,6.15899445 L8.10704336,6.64043966 L8.61668553,6.64043966 L8.20455337,6.93601045 L8.35995995,7.41745565 Z M7.02986244,8.55479378 L6.62153927,8.25693764 L6.21321609,8.55479378 L6.36862267,8.07334857 L5.95649051,7.77777778 L6.46613268,7.77777778 L6.62153927,7.29633257 L6.77694585,7.77777778 L7.28658802,7.77777778 L6.87445586,8.07334857 L7.02986244,8.55479378 Z M5.70052673,7.41745565 L5.29220355,7.11959952 L4.88388038,7.41745565 L5.03928696,6.93601045 L4.6271548,6.64043966 L5.13679697,6.64043966 L5.29220355,6.15899445 L5.44761013,6.64043966 L5.95725231,6.64043966 L5.54512015,6.93601045 L5.70052673,7.41745565 Z M4.37042922,8.55479378 L3.96210604,8.25693764 L3.55378287,8.55479378 L3.70918945,8.07334857 L3.29705729,7.77777778 L3.80669946,7.77777778 L3.96210604,7.29633257 L4.11751262,7.77777778 L4.6271548,7.77777778 L4.21502264,8.07334857 L4.37042922,8.55479378 Z M3.04033171,7.41745565 L2.63200853,7.11959952 L2.22368536,7.41745565 L2.37909194,6.93601045 L1.96695978,6.64043966 L2.47660195,6.64043966 L2.63200853,6.15899445 L2.78741511,6.64043966 L3.29705729,6.64043966 L2.88492513,6.93601045 L3.04033171,7.41745565 L3.04033171,7.41745565 Z M3.04033171,5.14277941 L2.63200853,4.84492328 L2.22368536,5.14277941 L2.37909194,4.6613342 L1.96695978,4.36576341 L2.47660195,4.36576341 L2.63200853,3.88431821 L2.78741511,4.36576341 L3.29705729,4.36576341 L2.88492513,4.6613342 L3.04033171,5.14277941 L3.04033171,5.14277941 Z M4.37042922,6.28011753 L3.96210604,5.9822614 L3.55378287,6.28011753 L3.70918945,5.79867233 L3.29705729,5.50310153 L3.80669946,5.50310153 L3.96210604,5.02165633 L4.11751262,5.50310153 L4.6271548,5.50310153 L4.21502264,5.79867233 L4.37042922,6.28011753 Z M5.70052673,5.14277941 L5.29220355,4.84492328 L4.88388038,5.14277941 L5.03928696,4.6613342 L4.6271548,4.36576341 L5.13679697,4.36576341 L5.29220355,3.88431821 L5.44761013,4.36576341 L5.95725231,4.36576341 L5.54512015,4.6613342 L5.70052673,5.14277941 Z M4.21502264,3.52399608 L4.37042922,4.00544129 L3.96210604,3.70758516 L3.55378287,4.00544129 L3.70918945,3.52399608 L3.29705729,3.22842529 L3.80669946,3.22842529 L3.96210604,2.74698008 L4.11751262,3.22842529 L4.6271548,3.22842529 L4.21502264,3.52399608 Z M7.02986244,6.28011753 L6.62153927,5.9822614 L6.21321609,6.28011753 L6.36862267,5.79867233 L5.95649051,5.50310153 L6.46613268,5.50310153 L6.62153927,5.02165633 L6.77694585,5.50310153 L7.28658802,5.50310153 L6.87445586,5.79867233 L7.02986244,6.28011753 Z M8.35995995,5.14277941 L7.95163678,4.84492328 L7.5433136,5.14277941 L7.69872018,4.6613342 L7.28658802,4.36576341 L7.79623019,4.36576341 L7.95163678,3.88431821 L8.10704336,4.36576341 L8.61668553,4.36576341 L8.20455337,4.6613342 L8.35995995,5.14277941 Z M6.87445586,3.52399608 L7.02986244,4.00544129 L6.62153927,3.70758516 L6.21321609,4.00544129 L6.36862267,3.52399608 L5.95649051,3.22842529 L6.46613268,3.22842529 L6.62153927,2.74698008 L6.77694585,3.22842529 L7.28658802,3.22842529 L6.87445586,3.52399608 Z M9.69005746,6.28011753 L9.28173429,5.9822614 L8.87341111,6.28011753 L9.02881769,5.79867233 L8.61668553,5.50310153 L9.1263277,5.50310153 L9.28173429,5.02165633 L9.43714087,5.50310153 L9.94678304,5.50310153 L9.53465088,5.79867233 L9.69005746,6.28011753 Z M11.020155,5.14277941 L10.6118318,4.84492328 L10.2035086,5.14277941 L10.3589152,4.6613342 L9.94678304,4.36576341 L10.4564252,4.36576341 L10.6118318,3.88431821 L10.7672384,4.36576341 L11.2768806,4.36576341 L10.8647484,4.6613342 L11.020155,5.14277941 Z M9.53465088,3.52399608 L9.69005746,4.00544129 L9.28173429,3.70758516 L8.87341111,4.00544129 L9.02881769,3.52399608 L8.61668553,3.22842529 L9.1263277,3.22842529 L9.28173429,2.74698008 L9.43714087,3.22842529 L9.94678304,3.22842529 L9.53465088,3.52399608 Z M12.3502525,6.28011753 L11.9419293,5.9822614 L11.5336061,6.28011753 L11.6890127,5.79867233 L11.2768806,5.50310153 L11.7865227,5.50310153 L11.9419293,5.02165633 L12.0973359,5.50310153 L12.6069781,5.50310153 L12.1948459,5.79867233 L12.3502525,6.28011753 Z M12.3502525,4.00544129 L11.9419293,3.70758516 L11.5336061,4.00544129 L11.6890127,3.52399608 L11.2768806,3.22842529 L11.7865227,3.22842529 L11.9419293,2.74698008 L12.0973359,3.22842529 L12.6069781,3.22842529 L12.1948459,3.52399608 L12.3502525,4.00544129 Z M13.68035,5.14277941 L13.2720268,4.84492328 L12.8637036,5.14277941 L13.0191102,4.6613342 L12.6069781,4.36576341 L13.1166202,4.36576341 L13.2720268,3.88431821 L13.4274334,4.36576341 L13.9370756,4.36576341 L13.5249434,4.6613342 L13.68035,5.14277941 Z M11.7865227,0.952987267 L11.9419293,0.471542061 L12.0973359,0.952987267 L12.6069781,0.952987267 L12.1948459,1.24855806 L12.3502525,1.73000326 L11.9419293,1.43214713 L11.5336061,1.73000326 L11.6890127,1.24855806 L11.2768806,0.952987267 L11.7865227,0.952987267 Z M10.6118318,1.60888018 L10.7672384,2.09032539 L11.2768806,2.09032539 L10.8647484,2.38589618 L11.020155,2.86734139 L10.6118318,2.56948525 L10.2035086,2.86734139 L10.3589152,2.38589618 L9.94678304,2.09032539 L10.4564252,2.09032539 L10.6118318,1.60888018 Z M9.1263277,0.952987267 L9.28173429,0.471542061 L9.43714087,0.952987267 L9.94678304,0.952987267 L9.53465088,1.24855806 L9.69005746,1.73000326 L9.28173429,1.43214713 L8.87341111,1.73000326 L9.02881769,1.24855806 L8.61668553,0.952987267 L9.1263277,0.952987267 Z M7.95239857,1.60888018 L8.10780515,2.09032539 L8.61744733,2.09032539 L8.20531517,2.38589618 L8.36072175,2.86734139 L7.95239857,2.56948525 L7.5440754,2.86734139 L7.69948198,2.38589618 L7.28734982,2.09032539 L7.79699199,2.09032539 L7.95239857,1.60888018 Z M6.46689448,0.952987267 L6.62230106,0.471542061 L6.77770764,0.952987267 L7.28734982,0.952987267 L6.87521766,1.24855806 L7.03062424,1.73000326 L6.62230106,1.43214713 L6.21397789,1.73000326 L6.36938447,1.24855806 L5.95725231,0.952987267 L6.46689448,0.952987267 Z M5.29220355,1.60888018 L5.44761013,2.09032539 L5.95725231,2.09032539 L5.54512015,2.38589618 L5.70052673,2.86734139 L5.29220355,2.56948525 L4.88388038,2.86734139 L5.03928696,2.38589618 L4.6271548,2.09032539 L5.13679697,2.09032539 L5.29220355,1.60888018 Z M3.80669946,0.952987267 L3.96210604,0.471542061 L4.11751262,0.952987267 L4.6271548,0.952987267 L4.21502264,1.24855806 L4.37042922,1.73000326 L3.96210604,1.43214713 L3.55378287,1.73000326 L3.70918945,1.24855806 L3.29705729,0.952987267 L3.80669946,0.952987267 Z M2.63200853,1.60888018 L2.78741511,2.09032539 L3.29705729,2.09032539 L2.88492513,2.38589618 L3.04033171,2.86734139 L2.63200853,2.56948525 L2.22368536,2.86734139 L2.37909194,2.38589618 L1.96695978,2.09032539 L2.47660195,2.09032539 L2.63200853,1.60888018 L2.63200853,1.60888018 Z M1.14650444,0.952987267 L1.30191102,0.471542061 L1.4573176,0.952987267 L1.96695978,0.952987267 L1.55482762,1.24855806 L1.7102342,1.73000326 L1.30191102,1.43214713 L0.893587846,1.73000326 L1.04899443,1.24855806 L0.636862267,0.952987267 L1.14650444,0.952987267 Z M1.14650444,3.22766351 L1.30191102,2.7462183 L1.4573176,3.22766351 L1.96695978,3.22766351 L1.55482762,3.5232343 L1.7102342,4.00467951 L1.30191102,3.70682338 L0.893587846,4.00467951 L1.04899443,3.5232343 L0.636862267,3.22766351 L1.14650444,3.22766351 Z M1.14650444,5.50310153 L1.30191102,5.02165633 L1.4573176,5.50310153 L1.96695978,5.50310153 L1.55482762,5.79867233 L1.7102342,6.28011753 L1.30191102,5.9822614 L0.893587846,6.28011753 L1.04899443,5.79867233 L0.636862267,5.50310153 L1.14650444,5.50310153 Z M1.14650444,7.77777778 L1.30191102,7.29633257 L1.4573176,7.77777778 L1.96695978,7.77777778 L1.55482762,8.07334857 L1.7102342,8.55479378 L1.30191102,8.25693764 L0.893587846,8.55479378 L1.04899443,8.07334857 L0.636862267,7.77777778 L1.14650444,7.77777778 Z M1.7102342,10.8302318 L1.30191102,10.5323757 L0.893587846,10.8302318 L1.04899443,10.3487866 L0.636862267,10.0532158 L1.14650444,10.0532158 L1.30191102,9.5717706 L1.4573176,10.0532158 L1.96695978,10.0532158 L1.55482762,10.3487866 L1.7102342,10.8302318 Z M2.63200853,9.39503754 L2.22368536,9.69289368 L2.37909194,9.21144847 L1.96695978,8.91587768 L2.47660195,8.91587768 L2.63200853,8.43443247 L2.78741511,8.91587768 L3.29705729,8.91587768 L2.88492513,9.21144847 L3.04033171,9.69289368 L2.63200853,9.39503754 L2.63200853,9.39503754 Z M4.37042922,10.8302318 L3.96210604,10.5323757 L3.55378287,10.8302318 L3.70918945,10.3487866 L3.29705729,10.0532158 L3.80669946,10.0532158 L3.96210604,9.5717706 L4.11751262,10.0532158 L4.6271548,10.0532158 L4.21502264,10.3487866 L4.37042922,10.8302318 Z M5.29220355,9.39503754 L4.88388038,9.69289368 L5.03928696,9.21144847 L4.6271548,8.91587768 L5.13679697,8.91587768 L5.29220355,8.43443247 L5.44761013,8.91587768 L5.95725231,8.91587768 L5.54512015,9.21144847 L5.70052673,9.69289368 L5.29220355,9.39503754 Z M7.02986244,10.8302318 L6.62153927,10.5323757 L6.21321609,10.8302318 L6.36862267,10.3487866 L5.95649051,10.0532158 L6.46613268,10.0532158 L6.62153927,9.5717706 L6.77694585,10.0532158 L7.28658802,10.0532158 L6.87445586,10.3487866 L7.02986244,10.8302318 Z M7.95239857,9.39503754 L7.5440754,9.69289368 L7.69948198,9.21144847 L7.28734982,8.91587768 L7.79699199,8.91587768 L7.95239857,8.43443247 L8.10780515,8.91587768 L8.61744733,8.91587768 L8.20531517,9.21144847 L8.36072175,9.69289368 L7.95239857,9.39503754 Z M9.69005746,10.8302318 L9.28173429,10.5323757 L8.87341111,10.8302318 L9.02881769,10.3487866 L8.61668553,10.0532158 L9.1263277,10.0532158 L9.28173429,9.5717706 L9.43714087,10.0532158 L9.94678304,10.0532158 L9.53465088,10.3487866 L9.69005746,10.8302318 Z M10.6118318,9.39503754 L10.2035086,9.69289368 L10.3589152,9.21144847 L9.94678304,8.91587768 L10.4564252,8.91587768 L10.6118318,8.43443247 L10.7672384,8.91587768 L11.2768806,8.91587768 L10.8647484,9.21144847 L11.020155,9.69289368 L10.6118318,9.39503754 Z M12.3502525,10.8302318 L11.9419293,10.5323757 L11.5336061,10.8302318 L11.6890127,10.3487866 L11.2768806,10.0532158 L11.7865227,10.0532158 L11.9419293,9.5717706 L12.0973359,10.0532158 L12.6069781,10.0532158 L12.1948459,10.3487866 L12.3502525,10.8302318 Z M13.2720268,9.39503754 L12.8637036,9.69289368 L13.0191102,9.21144847 L12.6069781,8.91587768 L13.1166202,8.91587768 L13.2720268,8.43443247 L13.4274334,8.91587768 L13.9370756,8.91587768 L13.5249434,9.21144847 L13.68035,9.69289368 L13.2720268,9.39503754 Z M15.0104475,10.8302318 L14.6021243,10.5323757 L14.1938011,10.8302318 L14.3492077,10.3487866 L13.9370756,10.0532158 L14.4467177,10.0532158 L14.6021243,9.5717706 L14.7575309,10.0532158 L15.2671731,10.0532158 L14.8550409,10.3487866 L15.0104475,10.8302318 Z M14.8550409,8.07334857 L15.0104475,8.55479378 L14.6021243,8.25693764 L14.1938011,8.55479378 L14.3492077,8.07334857 L13.9370756,7.77777778 L14.4467177,7.77777778 L14.6021243,7.29633257 L14.7575309,7.77777778 L15.2671731,7.77777778 L14.8550409,8.07334857 Z M14.8550409,5.79867233 L15.0104475,6.28011753 L14.6021243,5.9822614 L14.1938011,6.28011753 L14.3492077,5.79867233 L13.9370756,5.50310153 L14.4467177,5.50310153 L14.6021243,5.02165633 L14.7575309,5.50310153 L15.2671731,5.50310153 L14.8550409,5.79867233 Z M14.8550409,3.52399608 L15.0104475,4.00544129 L14.6021243,3.70758516 L14.1938011,4.00544129 L14.3492077,3.52399608 L13.9370756,3.22842529 L14.4467177,3.22842529 L14.6021243,2.74698008 L14.7575309,3.22842529 L15.2671731,3.22842529 L14.8550409,3.52399608 Z M14.8550409,1.24855806 L15.0104475,1.73000326 L14.6021243,1.43214713 L14.1938011,1.73000326 L14.3492077,1.24855806 L13.9370756,0.952987267 L14.4467177,0.952987267 L14.6021243,0.471542061 L14.7575309,0.952987267 L15.2671731,0.952987267 L14.8550409,1.24855806 Z M15.8476624,0 L35,0 L35,1.6043095 L15.8476624,1.6043095 Z M15.8476624,3.23223419 L35,3.23223419 L35,4.83654369 L15.8476624,4.83654369 Z M15.8476624,6.46523017 L35,6.46523017 L35,8.06953967 L15.8476624,8.06953967 Z M15.8476624,9.69746436 L35,9.69746436 L35,11.3017739 L15.8476624,11.3017739 Z M0,12.9304603 L34.9992382,12.9304603 L34.9992382,14.5347698 L0,14.5347698 Z M0,16.1626945 L34.9992382,16.1626945 L34.9992382,17.767004 L0,17.767004 Z M0,19.3956905 L34.9992382,19.3956905 L34.9992382,21 L0,21 Z" id="Combined-Shape"></path>
                        </g>
                    </g>
                </g>
            </g>
        </g>
    </g>
</svg>