<?xml version="1.0" encoding="UTF-8"?>
<svg width="16px" height="16px" viewBox="0 0 16 16" version="1.1" xmlns="http://www.w3.org/2000/svg" xmlns:xlink="http://www.w3.org/1999/xlink">
    <title>instagram copy</title>
    <g id="High-Fidelity-Website-Working" stroke="none" stroke-width="1" fill="none" fill-rule="evenodd">
        <g id="Support" transform="translate(-1757, -4487)" fill="#FFFFFF" fill-rule="nonzero">
            <g id="Group-11-Copy" transform="translate(0, 4437)">
                <g id="Group-12" transform="translate(1749, 42)">
                    <g id="instagram-copy" transform="translate(8, 8.001)">
                        <path d="M8,0 C5.829,0 5.556,0.01 4.703,0.048 C3.85,0.088 3.269,0.222 2.76,0.42 C2.22584432,0.620325572 1.742141,0.935398372 1.343,1.343 C0.935398372,1.742141 0.620325572,2.22584432 0.42,2.76 C0.222,3.268 0.087,3.85 0.048,4.7 C0.01,5.555 0,5.827 0,8.001 C0,10.173 0.01,10.445 0.048,11.298 C0.088,12.15 0.222,12.731 0.42,13.24 C0.625,13.766 0.898,14.212 1.343,14.657 C1.787,15.102 2.233,15.376 2.759,15.58 C3.269,15.778 3.849,15.913 4.701,15.952 C5.555,15.99 5.827,16 8,16 C10.173,16 10.444,15.99 11.298,15.952 C12.149,15.912 12.732,15.778 13.241,15.58 C13.7747979,15.379545 14.2581483,15.0644797 14.657,14.657 C15.102,14.212 15.375,13.766 15.58,13.24 C15.777,12.731 15.912,12.15 15.952,11.298 C15.99,10.445 16,10.173 16,8 C16,5.827 15.99,5.555 15.952,4.701 C15.912,3.85 15.777,3.268 15.58,2.76 C15.3796744,2.22584432 15.0646016,1.742141 14.657,1.343 C14.257859,0.935398372 13.7741557,0.620325572 13.24,0.42 C12.73,0.222 12.148,0.087 11.297,0.048 C10.443,0.01 10.172,0 7.998,0 L8,0 Z M7.283,1.442 L8.001,1.442 C10.137,1.442 10.39,1.449 11.233,1.488 C12.013,1.523 12.437,1.654 12.719,1.763 C13.092,1.908 13.359,2.082 13.639,2.362 C13.919,2.642 14.092,2.908 14.237,3.282 C14.347,3.563 14.477,3.987 14.512,4.767 C14.551,5.61 14.559,5.863 14.559,7.998 C14.559,10.133 14.551,10.387 14.512,11.23 C14.477,12.01 14.346,12.433 14.237,12.715 C14.1078327,13.0619018 13.9032414,13.3757907 13.638,13.634 C13.358,13.914 13.092,14.087 12.718,14.232 C12.438,14.342 12.014,14.472 11.233,14.508 C10.39,14.546 10.137,14.555 8.001,14.555 C5.865,14.555 5.611,14.546 4.768,14.508 C3.988,14.472 3.565,14.342 3.283,14.232 C2.93583299,14.1032559 2.6215984,13.8990035 2.363,13.634 C2.09727368,13.3756027 1.89232801,13.0613527 1.763,12.714 C1.654,12.433 1.523,12.009 1.488,11.229 C1.45,10.386 1.442,10.133 1.442,7.996 C1.442,5.859 1.45,5.608 1.488,4.765 C1.524,3.985 1.654,3.561 1.764,3.279 C1.909,2.906 2.083,2.639 2.363,2.359 C2.643,2.079 2.909,1.906 3.283,1.761 C3.565,1.651 3.988,1.521 4.768,1.485 C5.506,1.451 5.792,1.441 7.283,1.44 L7.283,1.442 Z M12.271,2.77 C11.928025,2.77 11.6111031,2.95297495 11.4396156,3.24999999 C11.2681281,3.54702503 11.2681281,3.91297497 11.4396156,4.21000001 C11.6111031,4.50702505 11.928025,4.69 12.271,4.69 C12.8011934,4.69 13.231,4.26019335 13.231,3.73 C13.231,3.19980665 12.8011934,2.77 12.271,2.77 M8.001,3.892 C6.51789785,3.8688611 5.137445,4.64683671 4.38913384,5.92752317 C3.64082268,7.20820963 3.64082268,8.79279037 4.38913384,10.0734768 C5.137445,11.3541633 6.51789785,12.1321389 8.001,12.109 C10.2450717,12.0739887 12.0459005,10.2448448 12.0459005,8.0005 C12.0459005,5.75615515 10.2450717,3.92701131 8.001,3.892 M8.001,5.333 C8.95382734,5.333 9.83427613,5.8413273 10.3106898,6.66649998 C10.7871035,7.49167266 10.7871035,8.50832734 10.3106898,9.33350002 C9.83427613,10.1586727 8.95382734,10.667 8.001,10.667 C6.52805657,10.667 5.334,9.47294343 5.334,8 C5.334,6.52705657 6.52805657,5.333 8.001,5.333" id="Shape"></path>
                    </g>
                </g>
            </g>
        </g>
    </g>
</svg>