<?xml version="1.0" encoding="UTF-8"?>
<svg width="16px" height="16px" viewBox="0 0 16 16" version="1.1" xmlns="http://www.w3.org/2000/svg" xmlns:xlink="http://www.w3.org/1999/xlink">
    <title>facebook</title>
    <g id="High-Fidelity-Website-Working" stroke="none" stroke-width="1" fill="none" fill-rule="evenodd">
        <g id="Support" transform="translate(-1722, -4487)" fill="#FFFFFF" fill-rule="nonzero">
            <g id="Group-11-Copy" transform="translate(0, 4437)">
                <g id="Group-13" transform="translate(1714, 42)">
                    <g id="facebook" transform="translate(7.998, 8)">
                        <path d="M16.002,8.05 C16.002,3.604 12.42,0 8.002,0 C3.582,0.001 -2.20309881e-16,3.604 -2.20309881e-16,8.051 C-2.20309881e-16,12.068 2.926,15.398 6.75,16.002 L6.75,10.377 L4.72,10.377 L4.72,8.051 L6.752,8.051 L6.752,6.276 C6.752,4.259 7.947,3.145 9.774,3.145 C10.65,3.145 11.565,3.302 11.565,3.302 L11.565,5.282 L10.556,5.282 C9.563,5.282 9.253,5.903 9.253,6.54 L9.253,8.05 L11.471,8.05 L11.117,10.376 L9.252,10.376 L9.252,16.001 C13.076,15.397 16.002,12.067 16.002,8.05" id="Path"></path>
                    </g>
                </g>
            </g>
        </g>
    </g>
</svg>