<?xml version="1.0" encoding="UTF-8"?>
<svg width="305px" height="44px" viewBox="0 0 305 44" version="1.1" xmlns="http://www.w3.org/2000/svg" xmlns:xlink="http://www.w3.org/1999/xlink">
    <title>Group 19 Copy</title>
    <g id="High-Fidelity-Website-Working" stroke="none" stroke-width="1" fill="none" fill-rule="evenodd">
        <g id="Group-19-Copy">
            <g id="Group" fill="#FF7200">
                <path d="M12.937368,10.9088829 C18.6003079,6.26400864 26.988011,6.57720908 32.2821578,11.8494164 C36.9229604,16.4728513 37.7363645,23.4630002 34.7242421,28.9160435 L37.31141,31.4924899 L38.4074931,32.5840307 L40.2954517,34.4641654 C39.5428891,35.5529098 38.6817479,36.5885219 37.7092198,37.5570197 C29.0828308,46.1476601 15.0958373,46.1476601 6.46944823,37.5570197 C0.3993383,31.5120649 -1.39876211,22.8244815 1.07327495,15.2125924 L3.8485835,15.2125924 C3.03424338,17.3835561 2.62145719,19.665445 2.62145719,22.0013982 C2.62145719,24.5200517 3.10163705,26.9753194 4.0470204,29.2982226 C5.02516456,31.7012902 6.46476811,33.8592039 8.32371003,35.7104421 C10.1826519,37.5616804 12.3495455,38.994386 14.7626131,39.9694087 C17.0942467,40.9118065 19.5597316,41.3890643 22.089802,41.3890643 C24.6189365,41.3890643 27.0844214,40.9108743 29.416991,39.9694087 C31.8300586,38.9953181 33.9969521,37.5616804 35.8558941,35.7104421 C36.1891183,35.3785988 36.5073662,35.0365019 36.8134457,34.6860157 L34.0025683,31.8867869 L33.2266051,31.1140394 L31.3629831,29.2581404 L29.090319,26.9948944 L27.1995523,25.1119632 C28.6092031,22.8151601 28.3190359,19.7670487 26.3253067,17.7815817 C24.3315774,15.7961147 21.2707818,15.50715 18.9644209,16.910959 L17.0736541,15.0280279 L14.80099,12.7647819 Z M6.46944823,6.44298032 C15.0958373,-2.14766011 29.0828308,-2.14766011 37.7092198,6.44298032 C43.7793298,12.4879351 45.5774302,21.1755185 43.1053931,28.7874076 L40.3310206,28.7874076 C41.1453607,26.6164439 41.5581469,24.334555 41.5581469,21.9986018 C41.5581469,19.4799483 41.077967,17.0246806 40.1325837,14.7017774 C39.1544395,12.2987098 37.714836,10.1407961 35.8558941,8.28955787 C33.9969521,6.4383196 31.8300586,5.00561405 29.416991,4.03059128 C27.0853574,3.08819355 24.6198725,2.61093575 22.089802,2.61093575 C19.5606676,2.61093575 17.0951827,3.08912569 14.7626131,4.03059128 C12.3495455,5.00468191 10.1826519,6.4383196 8.32371003,8.28955787 C7.9904858,8.62140118 7.67223794,8.96349808 7.36615838,9.31398428 L10.1770358,12.1132131 L10.952999,12.8859606 L12.816621,14.7418596 L15.0892851,17.0051056 L16.9800518,18.8880368 C15.570401,21.1848399 15.8605682,24.2329513 17.8542974,26.2184183 C19.8480267,28.2038853 22.9088223,28.49285 25.2151832,27.089041 L27.1059499,28.9719721 L29.3786141,31.2352181 L31.2422361,33.0911171 C25.5792962,37.7359914 17.1915931,37.4227909 11.8974463,32.1505836 C7.25570765,27.5280808 6.44230356,20.5379319 9.45442596,15.0848887 L6.86725806,12.5084423 L5.77117498,11.4169015 L3.88321635,9.53676673 C4.63577894,8.44802237 5.49692021,7.41241023 6.46944823,6.44391246 Z M11.399482,17.0228163 C10.6768722,18.5608542 10.2949747,20.2508315 10.2949747,21.9995339 C10.2949747,25.1371311 11.521165,28.0864352 13.7489,30.3049382 C15.9766351,32.5225092 18.9382122,33.7445501 22.088866,33.7445501 C23.8448454,33.7445501 25.5418553,33.3651675 27.0862935,32.64462 L24.6273607,30.1958774 C21.6770159,31.0991251 18.3344773,30.3897634 16.0000356,28.0640637 C13.665594,25.7383641 12.9523444,22.4106095 13.8593508,19.4724912 Z M22.0907381,10.2554499 C20.3347587,10.2554499 18.6377488,10.6348325 17.0933106,11.35538 L19.5522434,13.8041226 C22.5025882,12.9008749 25.8451268,13.6102366 28.1795685,15.9359363 C30.5140101,18.2616359 31.2272597,21.5893905 30.3202533,24.5275088 L32.7791861,26.9762515 C33.5027319,25.4391458 33.8846294,23.7491685 33.8846294,22.0004661 C33.8846294,18.8628689 32.6584391,15.9135648 30.4307041,13.6950618 C28.202969,11.4774908 25.2413919,10.2554499 22.0907381,10.2554499 Z M22.089802,19.2031015 C23.6406559,19.2031015 24.8978714,20.4551069 24.8978714,21.9995339 C24.8978714,23.5439609 23.6406559,24.7959664 22.089802,24.7959664 C20.5389482,24.7959664 19.2817327,23.5439609 19.2817327,21.9995339 C19.2817327,20.4551069 20.5389482,19.2031015 22.089802,19.2031015 Z" id="Combined-Shape"></path>
            </g>
            <g id="DronePoints-Copy-13" transform="translate(57.4594, 11.5759)" fill="#FFFFFF" fill-rule="nonzero">
                <path d="M0,6.38065574 L4.26282997,6.38065574 L4.26282997,13.3012131 L16.4845853,13.3012131 L16.4845853,4.36829508 L0,4.36829508 L0,0.245409836 L17.5687732,0.245409836 C18.0123047,0.245409836 18.4311955,0.327213115 18.8254456,0.490819672 C19.2196958,0.65442623 19.5564512,0.871204918 19.8357117,1.14115574 C20.1149722,1.41110656 20.336738,1.73013934 20.5010089,2.0982541 C20.6652798,2.46636885 20.7474152,2.8467541 20.7474152,3.23940984 L20.7474152,14.3564754 C20.7474152,14.7982131 20.6652798,15.2072295 20.5010089,15.5835246 C20.336738,15.9598197 20.119079,16.2829426 19.848032,16.5528934 C19.576985,16.8228443 19.2566568,17.0355328 18.8870472,17.190959 C18.5174377,17.3463852 18.1355078,17.4240984 17.7412577,17.4240984 L0,17.4240984 L0,6.38065574 Z M23.7117584,3.31303279 C23.7117584,2.87129508 23.7938938,2.46227869 23.9581647,2.08598361 C24.1224356,1.70968852 24.3400946,1.38656557 24.6111416,1.11661475 C24.8821886,0.846663934 25.2025168,0.63397541 25.5721264,0.47854918 C25.9417359,0.323122951 26.3236657,0.245409836 26.7179159,0.245409836 L41.1326878,0.245409836 C41.5762192,0.245409836 41.9868965,0.327213115 42.3647196,0.490819672 C42.7425426,0.65442623 43.0669777,0.871204918 43.3380247,1.14115574 C43.6090717,1.41110656 43.8226238,1.73013934 43.9786812,2.0982541 C44.1347385,2.46636885 44.2127672,2.8467541 44.2127672,3.23940984 L44.2127672,8.29485246 C44.2127672,8.73659016 44.1306318,9.14560656 43.9663609,9.52190164 C43.80209,9.89819672 43.584431,10.2213197 43.313384,10.4912705 C43.042337,10.7612213 42.7220088,10.9739098 42.3523992,11.1293361 C41.9827897,11.2847623 41.6008598,11.3624754 41.2066097,11.3624754 L39.5310465,11.3624754 L44.2866891,17.4240984 L39.1614369,17.4240984 L34.2579504,11.3624754 L30.0197611,11.3624754 L30.0197611,7.23959016 L39.9499373,7.23959016 L39.9499373,4.36829508 L27.9745883,4.36829508 L27.9745883,17.4240984 L23.7117584,17.4240984 L23.7117584,3.31303279 Z M63.7109769,13.3012131 L63.7109769,4.36829508 L51.4399403,4.36829508 L51.4399403,13.3012131 L63.7109769,13.3012131 Z M47.1771104,3.31303279 C47.1771104,2.87129508 47.2592458,2.46227869 47.4235167,2.08598361 C47.5877876,1.70968852 47.8054466,1.38656557 48.0764936,1.11661475 C48.3475406,0.846663934 48.6678688,0.63397541 49.0374784,0.47854918 C49.4070879,0.323122951 49.7890177,0.245409836 50.1832679,0.245409836 L64.7951649,0.245409836 C65.2386963,0.245409836 65.6575871,0.327213115 66.0518373,0.490819672 C66.4460874,0.65442623 66.7828428,0.871204918 67.0621033,1.14115574 C67.3413639,1.41110656 67.5631296,1.73013934 67.7274005,2.0982541 C67.8916714,2.46636885 67.9738069,2.8467541 67.9738069,3.23940984 L67.9738069,14.3564754 C67.9738069,14.7982131 67.8916714,15.2072295 67.7274005,15.5835246 C67.5631296,15.9598197 67.3454706,16.2829426 67.0744237,16.5528934 C66.8033767,16.8228443 66.4830484,17.0355328 66.1134389,17.190959 C65.7438293,17.3463852 65.3618995,17.4240984 64.9676493,17.4240984 L50.3557524,17.4240984 C49.9122209,17.4240984 49.4933301,17.3422951 49.0990799,17.1786885 C48.7048298,17.015082 48.3680744,16.7983033 48.0888139,16.5283525 C47.8095533,16.2584016 47.5877876,15.9393689 47.4235167,15.5712541 C47.2592458,15.2031393 47.1771104,14.8227541 47.1771104,14.4300984 L47.1771104,3.31303279 Z M70.93815,3.16578689 C70.93815,2.7894918 70.9956448,2.41319672 71.1106344,2.03690164 C71.2256241,1.66060656 71.4063221,1.32112295 71.6527284,1.01845082 C71.8991348,0.715778689 72.2194631,0.470368852 72.6137132,0.282221311 C73.0079634,0.0940737705 73.484349,0 74.0428701,0 C74.5521099,0 75.0284955,0.0940737705 75.472027,0.282221311 C75.9155584,0.470368852 76.301595,0.72804918 76.6301368,1.0552623 L87.102407,11.8042131 L87.102407,0.245409836 L91.365237,0.245409836 L91.365237,14.5037213 C91.365237,14.8800164 91.3036354,15.2563115 91.1804322,15.6326066 C91.057229,16.0089016 90.8724242,16.3483852 90.6260179,16.6510574 C90.3796115,16.9537295 90.0592833,17.1991393 89.6650331,17.3872869 C89.2707829,17.5754344 88.8026108,17.6695082 88.2605169,17.6695082 C87.6855687,17.6695082 87.192756,17.5754344 86.7820787,17.3872869 C86.3714015,17.1991393 86.0017919,16.941459 85.6732501,16.6142459 L75.20098,5.86529508 L75.20098,17.4240984 L70.93815,17.4240984 L70.93815,3.16578689 Z M94.3295801,3.31303279 C94.3295801,2.87129508 94.4117155,2.46227869 94.5759865,2.08598361 C94.7402574,1.70968852 94.9579163,1.38656557 95.2289633,1.11661475 C95.5000103,0.846663934 95.8203386,0.63397541 96.1899481,0.47854918 C96.5595576,0.323122951 96.9414875,0.245409836 97.3357376,0.245409836 L112.859338,0.245409836 L112.859338,4.36829508 L98.5924101,4.36829508 L98.5924101,6.57698361 L110.912728,6.57698361 L110.912728,10.6998689 L98.5924101,10.6998689 L98.5924101,13.3012131 L112.859338,13.3012131 L112.859338,17.4240984 L97.5082221,17.4240984 C97.0646907,17.4240984 96.6457998,17.3422951 96.2515497,17.1786885 C95.8572995,17.015082 95.5205442,16.7983033 95.2412836,16.5283525 C94.9620231,16.2584016 94.7402574,15.9393689 94.5759865,15.5712541 C94.4117155,15.2031393 94.3295801,14.8227541 94.3295801,14.4300984 L94.3295801,3.31303279 Z M115.823681,3.31303279 C115.823681,2.87129508 115.905817,2.46227869 116.070088,2.08598361 C116.234359,1.70968852 116.452017,1.38656557 116.723064,1.11661475 C116.994111,0.846663934 117.31444,0.63397541 117.684049,0.47854918 C118.053659,0.323122951 118.435589,0.245409836 118.829839,0.245409836 L133.491017,0.245409836 C133.934548,0.245409836 134.345226,0.327213115 134.723049,0.490819672 C135.100872,0.65442623 135.425307,0.871204918 135.696354,1.14115574 C135.967401,1.41110656 136.180953,1.73013934 136.33701,2.0982541 C136.493068,2.46636885 136.571096,2.8467541 136.571096,3.23940984 L136.571096,10.7244098 C136.571096,11.1661475 136.488961,11.5751639 136.32469,11.951459 C136.160419,12.3277541 135.94276,12.650877 135.671713,12.9208279 C135.400666,13.1907787 135.080338,13.4034672 134.710728,13.5588934 C134.341119,13.7143197 133.959189,13.7920328 133.564939,13.7920328 L120.086511,13.7920328 L120.086511,17.4240984 L115.823681,17.4240984 L115.823681,3.31303279 Z M132.308267,9.66914754 L132.308267,4.36829508 L120.086511,4.36829508 L120.086511,9.66914754 L132.308267,9.66914754 Z M155.8229,13.3012131 L155.8229,4.36829508 L143.551863,4.36829508 L143.551863,13.3012131 L155.8229,13.3012131 Z M139.289033,3.31303279 C139.289033,2.87129508 139.371169,2.46227869 139.53544,2.08598361 C139.699711,1.70968852 139.917369,1.38656557 140.188416,1.11661475 C140.459463,0.846663934 140.779792,0.63397541 141.149401,0.47854918 C141.519011,0.323122951 141.900941,0.245409836 142.295191,0.245409836 L156.907088,0.245409836 C157.350619,0.245409836 157.76951,0.327213115 158.16376,0.490819672 C158.55801,0.65442623 158.894766,0.871204918 159.174026,1.14115574 C159.453287,1.41110656 159.675052,1.73013934 159.839323,2.0982541 C160.003594,2.46636885 160.08573,2.8467541 160.08573,3.23940984 L160.08573,14.3564754 C160.08573,14.7982131 160.003594,15.2072295 159.839323,15.5835246 C159.675052,15.9598197 159.457394,16.2829426 159.186347,16.5528934 C158.9153,16.8228443 158.594971,17.0355328 158.225362,17.190959 C157.855752,17.3463852 157.473822,17.4240984 157.079572,17.4240984 L142.467675,17.4240984 C142.024144,17.4240984 141.605253,17.3422951 141.211003,17.1786885 C140.816753,17.015082 140.479997,16.7983033 140.200737,16.5283525 C139.921476,16.2584016 139.699711,15.9393689 139.53544,15.5712541 C139.371169,15.2031393 139.289033,14.8227541 139.289033,14.4300984 L139.289033,3.31303279 Z M162.310854,13.3012131 L167.904278,13.3012131 L167.904278,4.36829508 L162.310854,4.36829508 L162.310854,0.245409836 L177.809814,0.245409836 L177.809814,4.36829508 L172.167108,4.36829508 L172.167108,13.3012131 L177.809814,13.3012131 L177.809814,17.4240984 L162.310854,17.4240984 L162.310854,13.3012131 Z M180.281344,3.16578689 C180.281344,2.7894918 180.338839,2.41319672 180.453829,2.03690164 C180.568818,1.66060656 180.749516,1.32112295 180.995922,1.01845082 C181.242329,0.715778689 181.562657,0.470368852 181.956907,0.282221311 C182.351157,0.0940737705 182.827543,0 183.386064,0 C183.895304,0 184.37169,0.0940737705 184.815221,0.282221311 C185.258752,0.470368852 185.644789,0.72804918 185.973331,1.0552623 L196.445601,11.8042131 L196.445601,0.245409836 L200.708431,0.245409836 L200.708431,14.5037213 C200.708431,14.8800164 200.646829,15.2563115 200.523626,15.6326066 C200.400423,16.0089016 200.215618,16.3483852 199.969212,16.6510574 C199.722806,16.9537295 199.402477,17.1991393 199.008227,17.3872869 C198.613977,17.5754344 198.145805,17.6695082 197.603711,17.6695082 C197.028763,17.6695082 196.53595,17.5754344 196.125273,17.3872869 C195.714596,17.1991393 195.344986,16.941459 195.016444,16.6142459 L184.544174,5.86529508 L184.544174,17.4240984 L180.281344,17.4240984 L180.281344,3.16578689 Z M211.582418,4.36829508 L203.303165,4.36829508 L203.303165,0.245409836 L224.07522,0.245409836 L224.07522,4.36829508 L215.845248,4.36829508 L215.845248,17.4240984 L211.582418,17.4240984 L211.582418,4.36829508 Z M226.793157,13.3012131 L243.277743,13.3012131 L243.277743,10.6998689 L229.873237,10.6998689 C229.429705,10.6998689 229.019028,10.6180656 228.641205,10.454459 C228.263382,10.2908525 227.938947,10.0740738 227.6679,9.80412295 C227.396853,9.53417213 227.183301,9.21513934 227.027243,8.84702459 C226.871186,8.47890984 226.793157,8.09852459 226.793157,7.70586885 L226.793157,3.31303279 C226.793157,2.87129508 226.875293,2.46227869 227.039564,2.08598361 C227.203835,1.70968852 227.421493,1.38656557 227.69254,1.11661475 C227.963587,0.846663934 228.283916,0.63397541 228.653525,0.47854918 C229.023135,0.323122951 229.405065,0.245409836 229.799315,0.245409836 L245.618603,0.245409836 L245.618603,4.36829508 L231.055987,4.36829508 L231.055987,6.57698361 L244.460493,6.57698361 C244.904024,6.57698361 245.314702,6.65878689 245.692525,6.82239344 C246.070348,6.986 246.394783,7.20277869 246.66583,7.47272951 C246.936877,7.74268033 247.150429,8.06171311 247.306486,8.42982787 C247.462544,8.79794262 247.540572,9.17832787 247.540572,9.57098361 L247.540572,14.3564754 C247.540572,14.7982131 247.458437,15.2072295 247.294166,15.5835246 C247.129895,15.9598197 246.912236,16.2829426 246.641189,16.5528934 C246.370142,16.8228443 246.049814,17.0355328 245.680204,17.190959 C245.310595,17.3463852 244.928665,17.4240984 244.534415,17.4240984 L226.793157,17.4240984 L226.793157,13.3012131 Z" id="Combined-Shape"></path>
            </g>
        </g>
    </g>
</svg>