<?xml version="1.0" encoding="UTF-8"?>
<svg width="248px" height="18px" viewBox="0 0 248 18" version="1.1" xmlns="http://www.w3.org/2000/svg" xmlns:xlink="http://www.w3.org/1999/xlink">
    <title>Combined Shape</title>
    <g id="High-Fidelity-Website-Working" stroke="none" stroke-width="1" fill="none" fill-rule="evenodd">
        <path d="M0,6.5 L4.27074165,6.5 L4.27074165,13.55 L16.5151801,13.55 L16.5151801,4.45 L0,4.45 L0,0.25 L17.6013803,0.25 C18.0457349,0.25 18.4654032,0.333333333 18.8603851,0.5 C19.255367,0.666666667 19.5927473,0.8875 19.8725262,1.1625 C20.152305,1.4375 20.3744823,1.7625 20.5390581,2.1375 C20.7036339,2.5125 20.7859218,2.9 20.7859218,3.3 L20.7859218,14.625 C20.7859218,15.075 20.7036339,15.4916667 20.5390581,15.875 C20.3744823,16.2583333 20.1564194,16.5875 19.8848693,16.8625 C19.6133193,17.1375 19.2923965,17.3541667 18.922101,17.5125 C18.5518055,17.6708333 18.1691668,17.75 17.7741849,17.75 L0,17.75 L0,6.5 Z M23.7557666,3.375 C23.7557666,2.925 23.8380545,2.50833333 24.0026303,2.125 C24.1672061,1.74166667 24.385269,1.4125 24.6568191,1.1375 C24.9283691,0.8625 25.2492919,0.645833333 25.6195874,0.4875 C25.9898829,0.329166667 26.3725216,0.25 26.7675035,0.25 L41.2090287,0.25 C41.6533834,0.25 42.0648228,0.333333333 42.4433471,0.5 C42.8218714,0.666666667 43.1469086,0.8875 43.4184587,1.1625 C43.6900087,1.4375 43.9039572,1.7625 44.0603042,2.1375 C44.2166512,2.5125 44.2948247,2.9 44.2948247,3.3 L44.2948247,8.45 C44.2948247,8.9 44.2125368,9.31666667 44.0479611,9.7 C43.8833853,10.0833333 43.6653223,10.4125 43.3937723,10.6875 C43.1222223,10.9625 42.8012995,11.1791667 42.431004,11.3375 C42.0607084,11.4958333 41.6780697,11.575 41.2830878,11.575 L39.6044148,11.575 L44.3688838,17.75 L39.2341193,17.75 L34.3215321,11.575 L30.0754768,11.575 L30.0754768,7.375 L40.0240831,7.375 L40.0240831,4.45 L28.0265083,4.45 L28.0265083,17.75 L23.7557666,17.75 L23.7557666,3.375 Z M63.8292225,13.55 L63.8292225,4.45 L51.5354112,4.45 L51.5354112,13.55 L63.8292225,13.55 Z M47.2646696,3.375 C47.2646696,2.925 47.3469575,2.50833333 47.5115333,2.125 C47.6761091,1.74166667 47.894172,1.4125 48.165722,1.1375 C48.4372721,0.8625 48.7581949,0.645833333 49.1284904,0.4875 C49.4987859,0.329166667 49.8814246,0.25 50.2764065,0.25 L64.9154226,0.25 C65.3597773,0.25 65.7794455,0.333333333 66.1744274,0.5 C66.5694093,0.666666667 66.9067897,0.8875 67.1865685,1.1625 C67.4663473,1.4375 67.6885246,1.7625 67.8531004,2.1375 C68.0176762,2.5125 68.0999641,2.9 68.0999641,3.3 L68.0999641,14.625 C68.0999641,15.075 68.0176762,15.4916667 67.8531004,15.875 C67.6885246,16.2583333 67.4704617,16.5875 67.1989117,16.8625 C66.9273616,17.1375 66.6064388,17.3541667 66.2361433,17.5125 C65.8658478,17.6708333 65.4832091,17.75 65.0882272,17.75 L50.4492111,17.75 C50.0048564,17.75 49.5851882,17.6666667 49.1902063,17.5 C48.7952244,17.3333333 48.457844,17.1125 48.1780652,16.8375 C47.8982864,16.5625 47.6761091,16.2375 47.5115333,15.8625 C47.3469575,15.4875 47.2646696,15.1 47.2646696,14.7 L47.2646696,3.375 Z M71.069809,3.225 C71.069809,2.84166667 71.1274105,2.45833333 71.2426135,2.075 C71.3578166,1.69166667 71.53885,1.34583333 71.7857136,1.0375 C72.0325773,0.729166667 72.3535001,0.479166667 72.748482,0.2875 C73.1434639,0.0958333333 73.6207337,0 74.1802913,0 C74.6904763,0 75.167746,0.0958333333 75.6121007,0.2875 C76.0564553,0.479166667 76.4432084,0.741666667 76.77236,1.075 L87.2640663,12.025 L87.2640663,0.25 L91.534808,0.25 L91.534808,14.775 C91.534808,15.1583333 91.473092,15.5416667 91.3496602,15.925 C91.2262284,16.3083333 91.0410806,16.6541667 90.7942169,16.9625 C90.5473532,17.2708333 90.2264305,17.5208333 89.8314486,17.7125 C89.4364667,17.9041667 88.9674257,18 88.4243256,18 C87.8483104,18 87.354583,17.9041667 86.9431435,17.7125 C86.5317041,17.5208333 86.1614085,17.2583333 85.832257,16.925 L75.3405506,5.975 L75.3405506,17.75 L71.069809,17.75 L71.069809,3.225 Z M94.5046528,3.375 C94.5046528,2.925 94.5869407,2.50833333 94.7515165,2.125 C94.9160923,1.74166667 95.1341552,1.4125 95.4057053,1.1375 C95.6772553,0.8625 95.9981781,0.645833333 96.3684736,0.4875 C96.7387691,0.329166667 97.1214078,0.25 97.5163897,0.25 L113.068801,0.25 L113.068801,4.45 L98.7753945,4.45 L98.7753945,6.7 L111.118578,6.7 L111.118578,10.9 L98.7753945,10.9 L98.7753945,13.55 L113.068801,13.55 L113.068801,17.75 L97.6891943,17.75 C97.2448397,17.75 96.8251714,17.6666667 96.4301895,17.5 C96.0352076,17.3333333 95.6978273,17.1125 95.4180484,16.8375 C95.1382696,16.5625 94.9160923,16.2375 94.7515165,15.8625 C94.5869407,15.4875 94.5046528,15.1 94.5046528,14.7 L94.5046528,3.375 Z M116.038646,3.375 C116.038646,2.925 116.120934,2.50833333 116.28551,2.125 C116.450086,1.74166667 116.668149,1.4125 116.939699,1.1375 C117.211249,0.8625 117.532172,0.645833333 117.902467,0.4875 C118.272763,0.329166667 118.655401,0.25 119.050383,0.25 L133.738772,0.25 C134.183127,0.25 134.594566,0.333333333 134.973091,0.5 C135.351615,0.666666667 135.676652,0.8875 135.948202,1.1625 C136.219752,1.4375 136.433701,1.7625 136.590048,2.1375 C136.746395,2.5125 136.824568,2.9 136.824568,3.3 L136.824568,10.925 C136.824568,11.375 136.74228,11.7916667 136.577704,12.175 C136.413129,12.5583333 136.195066,12.8875 135.923516,13.1625 C135.651966,13.4375 135.331043,13.6541667 134.960747,13.8125 C134.590452,13.9708333 134.207813,14.05 133.812831,14.05 L120.309388,14.05 L120.309388,17.75 L116.038646,17.75 L116.038646,3.375 Z M132.553826,9.85 L132.553826,4.45 L120.309388,4.45 L120.309388,9.85 L132.553826,9.85 Z M156.112102,13.55 L156.112102,4.45 L143.818291,4.45 L143.818291,13.55 L156.112102,13.55 Z M139.547549,3.375 C139.547549,2.925 139.629837,2.50833333 139.794413,2.125 C139.958989,1.74166667 140.177052,1.4125 140.448602,1.1375 C140.720152,0.8625 141.041075,0.645833333 141.41137,0.4875 C141.781666,0.329166667 142.164304,0.25 142.559286,0.25 L157.198302,0.25 C157.642657,0.25 158.062325,0.333333333 158.457307,0.5 C158.852289,0.666666667 159.189669,0.8875 159.469448,1.1625 C159.749227,1.4375 159.971404,1.7625 160.13598,2.1375 C160.300556,2.5125 160.382844,2.9 160.382844,3.3 L160.382844,14.625 C160.382844,15.075 160.300556,15.4916667 160.13598,15.875 C159.971404,16.2583333 159.753341,16.5875 159.481791,16.8625 C159.210241,17.1375 158.889319,17.3541667 158.519023,17.5125 C158.148728,17.6708333 157.766089,17.75 157.371107,17.75 L142.732091,17.75 C142.287736,17.75 141.868068,17.6666667 141.473086,17.5 C141.078104,17.3333333 140.740724,17.1125 140.460945,16.8375 C140.181166,16.5625 139.958989,16.2375 139.794413,15.8625 C139.629837,15.4875 139.547549,15.1 139.547549,14.7 L139.547549,3.375 Z M162.612098,13.55 L168.215903,13.55 L168.215903,4.45 L162.612098,4.45 L162.612098,0.25 L178.139823,0.25 L178.139823,4.45 L172.486645,4.45 L172.486645,13.55 L178.139823,13.55 L178.139823,17.75 L162.612098,17.75 L162.612098,13.55 Z M180.615941,3.225 C180.615941,2.84166667 180.673542,2.45833333 180.788745,2.075 C180.903948,1.69166667 181.084982,1.34583333 181.331845,1.0375 C181.578709,0.729166667 181.899632,0.479166667 182.294614,0.2875 C182.689595,0.0958333333 183.166865,0 183.726423,0 C184.236608,0 184.713878,0.0958333333 185.158232,0.2875 C185.602587,0.479166667 185.98934,0.741666667 186.318492,1.075 L196.810198,12.025 L196.810198,0.25 L201.08094,0.25 L201.08094,14.775 C201.08094,15.1583333 201.019224,15.5416667 200.895792,15.925 C200.77236,16.3083333 200.587212,16.6541667 200.340349,16.9625 C200.093485,17.2708333 199.772562,17.5208333 199.37758,17.7125 C198.982598,17.9041667 198.513557,18 197.970457,18 C197.394442,18 196.900715,17.9041667 196.489275,17.7125 C196.077836,17.5208333 195.70754,17.2583333 195.378389,16.925 L184.886682,5.975 L184.886682,17.75 L180.615941,17.75 L180.615941,3.225 Z M211.975109,4.45 L203.680489,4.45 L203.680489,0.25 L224.491097,0.25 L224.491097,4.45 L216.24585,4.45 L216.24585,17.75 L211.975109,17.75 L211.975109,4.45 Z M227.214078,13.55 L243.729258,13.55 L243.729258,10.9 L230.299874,10.9 C229.85552,10.9 229.44408,10.8166667 229.065556,10.65 C228.687032,10.4833333 228.361994,10.2625 228.090444,9.9875 C227.818894,9.7125 227.604946,9.3875 227.448599,9.0125 C227.292252,8.6375 227.214078,8.25 227.214078,7.85 L227.214078,3.375 C227.214078,2.925 227.296366,2.50833333 227.460942,2.125 C227.625518,1.74166667 227.843581,1.4125 228.115131,1.1375 C228.386681,0.8625 228.707603,0.645833333 229.077899,0.4875 C229.448195,0.329166667 229.830833,0.25 230.225815,0.25 L246.074463,0.25 L246.074463,4.45 L231.48482,4.45 L231.48482,6.7 L244.914204,6.7 C245.358559,6.7 245.769998,6.78333333 246.148522,6.95 C246.527047,7.11666667 246.852084,7.3375 247.123634,7.6125 C247.395184,7.8875 247.609133,8.2125 247.76548,8.5875 C247.921827,8.9625 248,9.35 248,9.75 L248,14.625 C248,15.075 247.917712,15.4916667 247.753136,15.875 C247.588561,16.2583333 247.370498,16.5875 247.098948,16.8625 C246.827398,17.1375 246.506475,17.3541667 246.136179,17.5125 C245.765884,17.6708333 245.383245,17.75 244.988263,17.75 L227.214078,17.75 L227.214078,13.55 Z" id="Combined-Shape" fill="#2A2A2A" fill-rule="nonzero"></path>
    </g>
</svg>